# xmcd
#
# Track frame offsets: 
#        150
#        14007
#        27342
#        40499
#        52650
#        66620
#        79966
#        93882
#        107768
#        121081
#        134289
#        146413
#        160017
#        173058
#        186048
#        197493
#        210166
#        224249
#        237686
#        250381
#        264772
#        279157
#        293579
#        308356
#
# Disc length: 4295 seconds
#
# Revision: 0
# Processed by: cddbd v1.5.2PL0 Copyright (c) Steve Scherf et al.
# Submitted via: ExactAudioCopy v1.0b1
#
DISCID=5110c518
DTITLE=Leroy Carr - When the Sun Goes Down 1934-41, CDB
DYEAR=2011
DGENRE=Blues
TTITLE0=Bread Baker
TTITLE1=Tight Time Blues
TTITLE2=Longing For My Sugar
TTITLE3=The Stuff Is here (And It's Mellow)
TTITLE4=Black Wagon Blues
TTITLE5=Shinin' Pistol
TTITLE6=Arlena
TTITLE7=Arlena
TTITLE8=It's Too Short
TTITLE9=It's Too Short
TTITLE10=My Good For Nothin' Gal
TTITLE11=Suicide Blues
TTITLE12=Suicide Blues
TTITLE13=Rozetta Blues
TTITLE14=Rozetta Blues
TTITLE15=Church House Blues
TTITLE16=Rocks In My Bed
TTITLE17=When The Sun Goes Down
TTITLE18=Bad Luck All the Time
TTITLE19=Big Four Blues
TTITLE20=Just a Rag
TTITLE21=Ain't It A Shame
TTITLE22=Going Back Home
TTITLE23=Six Cold Feet in the Ground
EXTD=
EXTT0=
EXTT1=
EXTT2=
EXTT3=
EXTT4=
EXTT5=
EXTT6=
EXTT7=
EXTT8=
EXTT9=
EXTT10=
EXTT11=
EXTT12=
EXTT13=
EXTT14=
EXTT15=
EXTT16=
EXTT17=
EXTT18=
EXTT19=
EXTT20=
EXTT21=
EXTT22=
EXTT23=
PLAYORDER=
